<svg width="640" height="480" xmlns="http://www.w3.org/2000/svg" xmlns:svg="http://www.w3.org/2000/svg">
 <!-- Created with SVG-edit - https://github.com/SVG-Edit/svgedit-->
 <g class="layer">
  <title>Layer 1</title>
  <path d="m293.72113,230.84477c-7.83333,3.83333 -15.66667,14.66667 -20.5,20.5c-4.83333,5.83333 31.33333,-9 41,-21l-20.5,0.5z" fill="#ffaaaa" id="svg_18" stroke="#000000" stroke-dasharray="null" stroke-linecap="null" stroke-linejoin="null" stroke-width="5"/>
  <ellipse cx="147.5" cy="130.5" fill="#b2b2b2" id="svg_24" rx="13" ry="12" stroke="#000000" stroke-dasharray="null" stroke-linecap="null" stroke-linejoin="null" stroke-width="5"/>
  <path d="m370.72114,226.84477c-7.83333,3.83333 -15.66667,14.66667 -20.5,20.5c-4.83333,5.83333 31.33333,-9 41,-21l-20.5,0.5z" fill="#ffaaaa" id="svg_16" stroke="#000000" stroke-dasharray="null" stroke-linecap="null" stroke-linejoin="null" stroke-width="5"/>
  <path d="m346.72113,228.84477c-7.83333,3.83333 -15.66667,14.66667 -20.5,20.5c-4.83333,5.83333 31.33333,-9 41,-21l-20.5,0.5z" fill="#ffaaaa" id="svg_19" stroke="#000000" stroke-dasharray="null" stroke-linecap="null" stroke-linejoin="null" stroke-width="5"/>
  <path d="m320.72113,229.84477c-7.83333,3.83333 -15.66667,14.66667 -20.5,20.5c-4.83333,5.83333 31.33333,-9 41,-21l-20.5,0.5z" fill="#ffaaaa" id="svg_17" stroke="#000000" stroke-dasharray="null" stroke-linecap="null" stroke-linejoin="null" stroke-width="5"/>
  <path d="m471.5,186.4941c31.5,1.63059 64,1.86352 94.5,-3.4941c-24.33333,11.64701 -46.66667,31.67989 -73,34.94105c-26.33333,3.26116 -53,-33.07753 -21.5,-31.44694l0,-0.00001z" fill="#ff0000" id="svg_13" stroke="#000000" stroke-dasharray="null" stroke-linecap="null" stroke-linejoin="null" stroke-width="5"/>
  <path d="m448.5,187.5c15.5,-5.83333 28,-23.66667 48.5,-18.5c20.5,5.16667 36.66667,11.66667 56,17c-34.83333,0.5 -69.66667,1 -104.5,1.5z" fill="#ff0000" id="svg_12" stroke="#000000" stroke-dasharray="null" stroke-linecap="null" stroke-linejoin="null" stroke-width="5"/>
  <path d="m427.83301,173.84267c9.498,-3.10715 26.14397,-4.59858 29.0815,4.84715c2.93753,9.44573 4.70004,29.58005 -5.87505,32.06577c-10.57509,2.48572 -12.92511,1.98858 -21.73769,0.74572l-1.46876,-37.65863l0,-0.00001z" fill="#ff0000" id="svg_11" stroke="#000000" stroke-dasharray="null" stroke-linecap="null" stroke-linejoin="null" stroke-width="5"/>
  <path d="m404.83301,153.51731c11.31673,-5.30187 31.15016,-7.84676 34.65018,8.27091c3.50002,16.11767 5.60003,50.47376 -7.00004,54.71525c-12.60007,4.24149 -15.40008,3.3932 -25.90013,1.27245l-1.75001,-64.25861z" fill="#ff0000" id="svg_10" stroke="#000000" stroke-dasharray="null" stroke-linecap="null" stroke-linejoin="null" stroke-width="5"/>
  <path d="m372.5,138.80986c14.04482,-7.19387 38.65945,-10.64692 43.00321,11.22243c4.34376,21.86935 6.95001,68.48559 -8.68752,74.24068c-15.63753,5.75509 -19.11254,4.60408 -32.14381,1.72653l-2.17188,-87.18964z" fill="#ff0000" id="svg_9" stroke="#000000" stroke-dasharray="null" stroke-linecap="null" stroke-linejoin="null" stroke-width="5"/>
  <path d="m278.5,147.94376c19.57191,-14.91447 83.95802,-37.21086 92.73795,-14.01057c8.77992,23.20029 14.26738,89.48684 -1.09749,98.52591c-15.36487,9.03907 -59.26449,2.71172 -88.89673,-8.13517l-2.74373,-76.38018l0,0.00001z" fill="#ff0000" id="svg_8" stroke="#000000" stroke-dasharray="null" stroke-linecap="null" stroke-linejoin="null" stroke-width="5"/>
  <path d="m154.20174,217.03108c-1.02681,1.40167 -10.26812,16.81999 -20.02284,20.32415c-9.75471,3.50416 37.47864,-9.11083 36.96523,-9.81166c-0.51341,-0.70083 -16.9424,-10.51249 -16.9424,-10.51249l0.00001,0z" fill="#ffaaaa" id="svg_3" stroke="#000000" stroke-dasharray="null" stroke-linecap="null" stroke-linejoin="null" stroke-width="5"/>
  <path d="m176.66168,223.03108c-1.24131,1.46861 -12.41309,17.62332 -24.20552,21.29484c-11.79243,3.67152 45.30777,-9.54596 44.68712,-10.28027c-0.62065,-0.7343 -20.4816,-11.01457 -20.4816,-11.01457z" fill="#ffaaaa" id="svg_4" stroke="#000000" stroke-dasharray="null" stroke-linecap="null" stroke-linejoin="null" stroke-width="5"/>
  <path d="m142.5,211.5c-1,1 -10,12 -19.5,14.5c-9.5,2.5 36.5,-6.5 36,-7c-0.5,-0.5 -16.5,-7.5 -16.5,-7.5z" fill="#ffaaaa" id="svg_2" stroke="#000000" stroke-dasharray="null" stroke-linecap="null" stroke-linejoin="null" stroke-width="5"/>
  <path d="m233.5,156.66703c11.95308,-10.7247 47.1697,-33.22899 55.13842,-16.35077c7.96872,16.87821 16.1945,84.39107 -2.3135,88.61063c-18.508,4.21955 -32.389,-2.10978 -49.35467,-5.27444l-3.47025,-66.98542z" fill="#ff0000" id="svg_7" stroke="#000000" stroke-dasharray="null" stroke-linecap="null" stroke-linejoin="null" stroke-width="5"/>
  <path d="m87.5,115.5c9.83333,6.5 24.16667,26.83333 55.5,22.5c31.33333,-4.33333 69.33333,-0.33333 85,9c15.66667,9.33333 26.66667,24 24,46c-2.66667,22 -10,33.33333 -35,40c-25,6.66667 -54,-4.66667 -75,-13l-51,-36l21,4l-29,-27l19,6l-27,-38l24,17l-35,-52l23.5,21.5z" fill="#ff0000" id="svg_1" stroke="#000000" stroke-dasharray="null" stroke-linecap="null" stroke-linejoin="null" stroke-width="5"/>
  <path d="m233.5,228.5c-3.5,-9.5 -57,-13 -69.5,-4.5c-12.5,8.5 8.33333,46 15,40c6.66667,-6 -4.66667,-22 -7,-33c14.16667,-0.5 65,7 61.5,-2.5z" fill="#ffaaaa" id="svg_5" stroke="#000000" stroke-dasharray="null" stroke-linecap="null" stroke-linejoin="null" stroke-width="5"/>
  <path d="m231.5,230.5c5.16667,9.16667 29.33333,-4.66667 40.5,0.5c11.16667,5.16667 17.66667,30.33333 23,26c5.33333,-4.33333 -5.33333,-30.66667 -14,-38c-8.66667,-7.33333 -54.66667,2.33333 -49.5,11.5z" fill="#ffaaaa" id="svg_6" stroke="#000000" stroke-dasharray="null" stroke-linecap="null" stroke-linejoin="null" stroke-width="5"/>
  <path d="m186.5,56.5c-48.33333,-1 -82.66667,52 -67,96" fill="none" id="svg_14" stroke="#000000" stroke-dasharray="null" stroke-linecap="null" stroke-linejoin="null" stroke-width="5"/>
  <path d="m86.5,114.5c-2,-90 91,-43 120,-21" fill="none" id="svg_15" stroke="#000000" stroke-dasharray="null" stroke-linecap="null" stroke-linejoin="null" stroke-width="5"/>
  <ellipse cx="159.5" cy="155.5" fill="#b2b2b2" id="svg_20" rx="13" ry="12" stroke="#000000" stroke-dasharray="null" stroke-linecap="null" stroke-linejoin="null" stroke-width="5"/>
  <ellipse cx="156.5" cy="152.5" fill="#ffffff" id="svg_22" rx="7" ry="8" stroke="#000000" stroke-dasharray="null" stroke-linecap="null" stroke-linejoin="null" stroke-width="5"/>
  <ellipse cx="144.5" cy="128.5" fill="#ffffff" id="svg_23" rx="7" ry="8" stroke="#000000" stroke-dasharray="null" stroke-linecap="null" stroke-linejoin="null" stroke-width="5"/>
 </g>
</svg>