<svg width="640" height="480" xmlns="http://www.w3.org/2000/svg" xmlns:svg="http://www.w3.org/2000/svg">
 <!-- Created with SVG-edit - https://github.com/SVG-Edit/svgedit-->
 <g class="layer">
  <title>Layer 1</title>
  <path d="m316.84709,348.93656c3.47004,12.40174 -1.27843,49.81718 19.17649,43.51121c20.45493,-6.30598 45.33085,-19.41553 49.31099,-13.87314c3.98015,5.54239 -9.04349,10.49279 -4.3832,20.17911l9.71106,2.75404c5.60495,6.74353 -7.15419,7.56717 -9.71106,14.90268c0.36527,4.20398 16.90303,12.2516 1.0958,12.61195c-15.80723,0.36034 -54.05946,-2.23926 -62.38502,-9.57478c-5.76869,-3.14012 -8.13663,-11.60814 -11.18471,-17.11621l-18.47746,-60.33143l26.8471,6.93657z" fill="#ffff56" id="svg_13" stroke="#000000" stroke-dasharray="null" stroke-linecap="null" stroke-linejoin="null" stroke-width="5"/>
  <path d="m233.00529,346.11165c3.5857,13.68881 -1.32105,54.98726 19.81568,48.02685c21.13673,-6.96042 46.84181,-21.4305 50.95462,-15.31291c4.11281,6.11758 -9.34493,11.58174 -4.5293,22.27332l10.03474,3.03986c5.79178,7.44338 -7.39265,8.3525 -10.03474,16.4493c0.37744,4.64028 17.46643,13.52309 1.13232,13.92083c-16.33411,0.39774 -55.86136,-2.47166 -64.46442,-10.56846c-5.96097,-3.466 -8.40783,-12.81285 -11.55752,-18.89255l-19.09334,-66.59269l27.74196,7.65646z" fill="#ffff56" id="svg_14" stroke="#000000" stroke-dasharray="null" stroke-linecap="null" stroke-linejoin="null" stroke-width="5" transform="rotate(20.086 258 386.5)"/>
  <path d="m333.5,156.5c7.16667,32.5 33.16667,30.83333 54.5,73.5c21.33333,42.66667 23.33333,57.33333 5,85c-18.33333,27.66667 -49,45 -92,48c-43,3 -84.33333,0.33333 -118,-15c-33.66667,-15.33333 -69.66667,-40 -100,-70c-30.33333,-30 -56.66667,-75 -79,-114c40.33333,6 85.33333,36 123,26c37.66667,-10 105.33333,-9.66667 116,-12c10.66667,-2.33333 22.33333,-9.66667 32,-22l58.5,0.5z" fill="#ffff56" id="svg_3" stroke="#000000" stroke-dasharray="null" stroke-linecap="null" stroke-linejoin="null" stroke-width="5"/>
  <path d="m312.5,233.5c-7.83333,17.5 -36.66667,49 -66.5,53.5c-29.83333,4.5 -22.125,-1.375 -36,-1.125c-13.875,0.25 -40.25,-10.125 -51,-16.875c-10.75,-6.75 -18.875,-10.625 -45.625,-33.125c-26.75,-22.5 -38.125,-42.625 -38.375,-42.875c-0.25,-0.25 49.375,26.875 103.0625,22.0625c53.6875,-4.8125 142.27083,0.9375 134.4375,18.4375z" fill="#ffff56" id="svg_11" stroke="#000000" stroke-dasharray="null" stroke-linecap="null" stroke-linejoin="null" stroke-width="5"/>
  <g id="svg_6" transform="rotate(4.65338 332.77 120.97)">
   <path d="m288.58423,55.96995c15.4115,2.61571 53.28139,17.40249 62.21891,26.58416c8.93752,9.18168 -4.58335,29.25326 15.12504,33.95086c19.70839,4.6976 20.79693,6.9263 31.53914,9.10828c10.74222,2.18198 21.97142,9.97573 34.46103,6.90628c24.97923,-6.13891 14.89587,4.37731 4.81251,9.1283c-5.04168,2.3755 -17.96098,2.4956 -30.6368,5.9454c-12.67581,3.4498 -16.85811,2.54231 -31.92586,-2.26206l11.68753,9.76888l-6.18752,-1.7616c4.81251,2.37549 -8.47919,0.26691 -5.50001,2.6424l6.87502,1.36124c-1.14584,7.50015 -18.10421,-6.08553 -4.81251,1.44131c13.2917,7.52684 -6.64585,-0.85411 -33.00008,3.20291c-26.35423,4.05702 -69.66684,8.11404 -78.3752,5.12466c-8.70836,-2.98939 -25.85293,-4.49743 -39.12315,-30.52775c-13.27021,-26.03032 -9.03062,-35.69244 -4.87697,-47.62328c4.15365,-11.93084 11.80212,-19.53776 23.54694,-25.46314c11.74482,-5.92539 28.76049,-10.14255 44.17199,-7.52684l-0.00001,-0.00001z" fill="#ffff56" id="svg_1" stroke="#000000" stroke-width="5"/>
   <path d="m448.77214,132.19923c-12.67603,5.95794 -38.77373,13.64518 -74.93769,11.53124" fill="none" id="svg_7" stroke="#000000" stroke-dasharray="null" stroke-linecap="null" stroke-linejoin="null" stroke-width="5"/>
   <g id="svg_8" transform="matrix(0.682135 -0.079886 0.0857373 0.635581 136.566 124.74)">
    <path d="m348.751,71.87773c12.13257,10.50682 73.66204,51.65852 73.22873,51.22074c-0.21665,-0.21889 2.49151,9.08402 -12.99918,7.00455c-15.49069,-2.07947 -22.31526,-5.03452 -35.5311,-12.25795c-13.21584,-7.22344 -11.80759,-4.26839 -25.45673,-13.57131l-13.54082,-5.69119c-10.18269,-2.8456 -11.80759,1.20391 -25.78171,-13.46186c-13.97412,-14.66577 6.9329,-32.72436 6.71624,-32.94325c-0.21665,-0.21889 7.25788,13.24297 17.38641,15.37717l15.97816,4.32312l0,-0.00002z" fill="#ffff56" id="svg_12" stroke="#000000" stroke-dasharray="null" stroke-linecap="null" stroke-linejoin="null" stroke-width="5" transform="rotate(-4.96513 362.947 91.2909)"/>
    <path d="m311.9055,57.52667c-6.114,21.16762 3.03826,40.23207 25.14391,45.03614" fill="none" id="svg_5" stroke="#000000" stroke-dasharray="null" stroke-linecap="null" stroke-linejoin="null" stroke-width="5" transform="rotate(-4.96513 323.551 80.0449)"/>
   </g>
   <ellipse cx="311.27179" cy="95.68605" fill="none" id="svg_2" rx="13.75004" ry="7.68699" stroke="#000000" stroke-dasharray="null" stroke-linecap="null" stroke-linejoin="null" stroke-width="5"/>
   <ellipse cx="315.74055" cy="95.36576" fill="#4c4c4c" id="svg_4" rx="9.28127" ry="4.80437" stroke="#666666" stroke-dasharray="null" stroke-linecap="null" stroke-linejoin="null" stroke-width="5"/>
   <path d="m299.58426,80.5323c10.90092,-3.35053 21.80186,0.25773 30.25008,6.1856" fill="none" id="svg_9" stroke="#000000" stroke-dasharray="null" stroke-linecap="null" stroke-linejoin="null" stroke-width="5"/>
   <ellipse cx="285.8332" cy="91.24562" fill="none" id="svg_10" rx="10.34217" ry="4.91516" stroke="#000000" stroke-dasharray="null" stroke-linecap="null" stroke-linejoin="null" stroke-width="5" transform="matrix(0.650617 0.207001 -0.222162 0.606215 205.56 13.3816)"/>
  </g>
 </g>
</svg>