<svg width="640" height="480" xmlns="http://www.w3.org/2000/svg" xmlns:svg="http://www.w3.org/2000/svg">
 <!-- Created with SVG-edit - https://github.com/SVG-Edit/svgedit-->
 <g class="layer">
  <title>Layer 1</title>
  <path d="m420.76475,345.17144c2.54427,10.27924 -0.93736,41.29121 14.06043,36.06448c14.9978,-5.22674 33.23712,-16.09266 36.1554,-11.49882c2.91829,4.59384 -6.63079,8.697 -3.21381,16.72555l7.12026,2.2827c4.10962,5.58941 -5.24554,6.27209 -7.12026,12.35216c0.26782,3.48449 12.3935,10.1548 0.80345,10.45348c-11.59005,0.29867 -39.63704,-1.85602 -45.74144,-7.9361c-4.22967,-2.6027 -5.96587,-9.62146 -8.20076,-14.18685l-13.54789,-50.006l19.68461,5.74941l0.00001,0l0,-0.00001z" fill="#ffff56" id="svg_8" stroke="#000000" stroke-dasharray="null" stroke-linecap="null" stroke-linejoin="null" stroke-width="5"/>
  <path d="m444.42698,177.90915c6.45266,29.37629 29.86231,27.8698 49.07023,66.4356c19.20791,38.56579 21.00866,51.82278 4.50186,76.83029c-16.5068,25.00751 -44.11819,40.67485 -82.83414,43.38651c-38.71596,2.71166 -75.93129,0.30129 -106.24379,-13.55829c-30.3125,-13.85958 -62.72586,-36.15543 -90.03711,-63.272c-27.31125,-27.11658 -51.02104,-67.79143 -71.12932,-103.04297c36.31496,5.42331 76.83167,32.53989 110.74565,23.50103c33.91398,-9.03886 94.83909,-8.73756 104.44305,-10.84663c9.60396,-2.10906 20.10828,-8.73756 28.81188,-19.88549l52.67171,0.45194z" fill="#ffff56" id="svg_1" stroke="#000000" stroke-dasharray="null" stroke-linecap="null" stroke-linejoin="null" stroke-width="5"/>
  <path d="m403.73998,63.40023c16.40867,2.91673 56.72884,19.40517 66.24465,29.64347c9.5158,10.2383 -4.8799,32.61972 16.10368,37.85793c20.98358,5.2382 -1.62953,17.07882 9.80774,25.12518c11.43727,8.04635 -12.26507,12.37113 1.03265,8.94845c26.59546,-6.84537 -3.53333,1.13887 -9.89005,5.18922c-6.35672,4.05034 12.78151,-9.69114 -0.71447,-5.84433l8.54793,-1.27499l12.44374,10.89308l-6.58787,-1.96432c5.12389,2.64886 -9.02782,0.29763 -5.85588,2.94649l7.31986,1.51789c-1.21998,8.36327 -24.90584,-13.64652 -10.75412,-5.25349c14.15171,8.39303 -1.44563,5.90827 -29.50505,10.43216c-28.05942,4.5239 -74.17448,9.0478 -83.44629,5.7144c-9.27181,-3.33342 -27.52568,-5.015 -41.65452,-34.04088c-14.12883,-29.02589 -9.61493,-39.79993 -5.19253,-53.10377c4.42241,-13.30384 12.56575,-21.78616 25.07049,-28.39344c12.50475,-6.60729 30.62137,-11.30975 47.03005,-8.39303l-0.00002,-0.00001l0.00002,0.00001l-0.00001,-0.00002z" fill="#ffff56" id="svg_1" stroke="#000000" stroke-width="5"/>
  <path d="m363.81961,352.48318c2.54427,10.27924 -0.93736,41.29121 14.06043,36.06448c14.9978,-5.22674 33.23712,-16.09266 36.1554,-11.49882c2.91829,4.59384 -6.63079,8.697 -3.21381,16.72555l7.12026,2.2827c4.10962,5.58941 -5.24554,6.27209 -7.12026,12.35216c0.26782,3.48449 12.3935,10.1548 0.80345,10.45348c-11.59005,0.29867 -39.63704,-1.85602 -45.74144,-7.9361c-4.22967,-2.6027 -5.96587,-9.62146 -8.20076,-14.18685l-13.54789,-50.006l19.68461,5.74941l0.00001,0l0,-0.00001z" fill="#ffff56" id="svg_1" stroke="#000000" stroke-dasharray="null" stroke-linecap="null" stroke-linejoin="null" stroke-width="5" transform="rotate(22.8105 381.555 382.812)"/>
  <path d="m494.61188,152.06524c6.91202,6.04632 39.24106,27.02534 38.98016,26.75948c-0.13045,-0.13293 2.97495,6.77028 -3.30453,8.09839c-6.27947,1.32812 -9.50384,0.28576 -16.08496,-2.93081c-6.58112,-3.21658 -5.38907,-1.1295 -12.59978,-5.92234l-6.35895,-1.93085c-4.45984,-0.30725 -4.0153,4.72216 -12.69713,-5.7723c-8.68182,-10.49446 -4.74777,-27.4578 -4.87822,-27.59072c-0.13045,-0.13293 5.6974,9.17057 9.97715,8.92043l6.96626,0.36874l-0.00001,-0.00002l0.00001,0l0.00001,0l-0.00001,-0.00001l0,0.00001z" fill="#ffff56" id="svg_7" stroke="#000000" stroke-dasharray="null" stroke-linecap="null" stroke-linejoin="null" stroke-width="5" transform="rotate(-7.93411 505.568 165.13)"/>
  <path d="m474.22849,131.81635c5.67932,-2.06036 9.68153,-0.89772 20.42578,2.68669c10.74425,3.58442 13.68149,4.19758 20.86813,4.18417c7.18664,-0.01341 12.93152,5.44664 16.58566,2.72332c5.938,-1.21036 9.8553,-2.87015 14.58088,-3.18167c4.72557,-0.31153 -2.82899,8.92198 -10.36568,10.01233c-7.53669,1.09035 -13.36846,9.92295 -25.94747,6.81277c-12.57902,-3.11018 -30.54295,-0.43601 -33.29152,-3.62216c-2.74857,-3.18615 -8.53511,-17.55509 -2.85578,-19.61545l0,0.00001l0,-0.00001z" fill="#ffff56" id="svg_1" stroke="#000000" stroke-dasharray="null" stroke-linecap="null" stroke-linejoin="null" stroke-width="5"/>
  <path d="m421.5,94.93955c11.30952,-7.65953 24.99405,-8.03316 38,0.56045" fill="none" id="svg_1" stroke="#000000" stroke-dasharray="null" stroke-linecap="null" stroke-linejoin="null" stroke-width="5" transform="rotate(7.18059 440.5 92.3123)"/>
  <g id="svg_9">
   <ellipse cx="708.12788" cy="28.1153" fill="none" id="svg_5" rx="30.10403" ry="18.73419" stroke="#000000" stroke-dasharray="null" stroke-linecap="null" stroke-linejoin="null" stroke-width="5" transform="matrix(0.50967 -0.00839423 0.0064863 0.659588 80.8036 99.4059)"/>
   <ellipse cx="674.73627" cy="-15.87875" fill="#000000" id="svg_6" rx="14.28127" ry="14.30437" stroke="#000000" stroke-dasharray="null" stroke-linecap="null" stroke-linejoin="null" stroke-width="5" transform="matrix(0.508634 0.0428603 -0.0331186 0.658247 91.5412 93.2482)"/>
   <path d="m426.84428,82.97812c-2.26363,7.7432 1.42705,14.71595 8.27268,18.68033" fill="none" id="svg_10" stroke="#000000" stroke-dasharray="null" stroke-linecap="null" stroke-linejoin="null" stroke-width="5"/>
   <path d="m408.5,94.00406c1.61408,9.9872 9.5231,14.19234 19.36901,12.61541" fill="none" id="svg_11" stroke="#000000" stroke-dasharray="null" stroke-linecap="null" stroke-linejoin="null" stroke-width="5"/>
   <path d="m415.71384,84.58117c-1.24296,8.36455 5.05272,16.14672 14.77638,20.77835" fill="none" id="svg_12" stroke="#000000" stroke-dasharray="null" stroke-linecap="null" stroke-linejoin="null" stroke-width="5"/>
  </g>
 </g>
</svg>