<svg width="640" height="480" xmlns="http://www.w3.org/2000/svg" xmlns:svg="http://www.w3.org/2000/svg">
 <!-- Created with SVG-edit - https://github.com/SVG-Edit/svgedit-->
 <g class="layer">
  <title>Layer 1</title>
  <path d="m398.5,262.5c2.83333,8.83333 -5.16667,18.83333 -24.5,26.5c-19.33333,7.66667 -65.66667,17.66667 -67,8c-1.33333,-9.66667 12,-10 11,-17c-1,-7 -6.5,-12.5 2.5,-12.5c9,0 75.16667,-13.83333 78,-5z" fill="#00bf5f" id="svg_14" stroke="#000000" stroke-dasharray="null" stroke-linecap="null" stroke-linejoin="null" stroke-width="5"/>
  <path d="m370.78873,101.56534l-108.0081,30.43466c-6.01601,-7.4377 2.1056,-17.51459 14.43842,-32.39c12.33281,-14.8754 44.32325,-27.05965 58.65606,-26.63177c14.33281,0.42788 16.40962,1.31959 26.04162,8.26943c9.63201,6.94984 11.6544,16.059 8.872,20.31769z" fill="#00bf5f" id="svg_13" stroke="#000000" stroke-dasharray="null" stroke-linecap="null" stroke-linejoin="null" stroke-width="5"/>
  <path d="m414.5,115.5c13.5,-7.5 29.16667,-10.16667 36.5,1.5c7.33333,11.66667 0.66667,34 4,32c3.33333,-2 20.66667,1 16,15l-11,13c14.33333,6.66667 12.66667,26.66667 10,32c-2.66667,5.33333 -17.33334,11 -20,15c-2.66666,4 -9,13.25 -19.5,22.375c-10.5,9.125 -20.16666,17.125 -33.5,19.625c-13.33334,2.5 -33,6.66667 -64,7c-31,0.33333 -59.33333,-14.66667 -90,-35c-30.66667,-20.33333 -67.66667,49 -84,46c-16.33333,-3 23.33333,-45 23,-63c-7.66667,-23 -78.66667,-38.33333 -49,-47c29.66667,-8.66667 59.33333,13.66667 89,-2c29.66667,-15.66667 29.33333,-33.66667 43,-43c13.66667,-9.33333 65.33333,-38 102,-30c36.66667,8 34,24 47.5,16.5z" fill="#00bf00" id="svg_1" stroke="#000000" stroke-dasharray="null" stroke-linecap="null" stroke-linejoin="null" stroke-width="5"/>
  <path d="m450.15389,179.90506c-9.26666,5.39617 -51.62292,14.31873 -40.49459,21.6399c11.12833,7.32117 34.12466,10.02824 33.66967,9.50044c-0.455,-0.5278 5.35571,0.38204 12.07821,-1.84409c6.72251,-2.22615 8.15377,-9.37779 7.76608,-17.24907c-0.3877,-7.87128 -3.7527,-17.44334 -13.01936,-12.04717z" fill="#bf00bf" id="svg_4" stroke="#000000" stroke-dasharray="null" stroke-linecap="null" stroke-linejoin="null" stroke-width="5"/>
  <path d="m456.5,219.5c-10.66667,1.45097 -29.33333,1.45097 -37,0.36274" fill="none" id="svg_5" stroke="#000000" stroke-dasharray="null" stroke-linecap="null" stroke-linejoin="null" stroke-width="5"/>
  <ellipse cx="402.5" cy="154.5" fill="#ffffff" id="svg_8" rx="22" ry="20" stroke="#000000" stroke-dasharray="null" stroke-linecap="null" stroke-linejoin="null" stroke-width="5" transform="rotate(-15.0184 402.5 154.5)"/>
  <ellipse cx="398.5" cy="159.5" fill="#000000" id="svg_10" rx="12" ry="13" stroke="#000000" stroke-dasharray="null" stroke-linecap="null" stroke-linejoin="null" stroke-width="5"/>
  <path d="m324.50426,165.82162c-11.74768,-3.86695 -47.4238,-6.69135 -60.74752,-24.60862c-13.32373,-17.91727 -58.55384,-48.53027 -55.79944,-30.52375c2.7544,18.00652 36.85299,42.76587 38.16433,57.33527c1.31134,14.5694 1.54214,15.48977 -29.16419,27.74287c-30.70634,12.25311 -33.17697,29.82359 -14.64728,27.74287c18.52968,-2.08071 33.70775,-8.809 52.46076,-17.85068c18.75302,-9.04169 41.03657,-5.36553 62.14788,-11.99988c21.11131,-6.63436 19.33314,-23.97113 7.58546,-27.83808z" fill="#00bf5f" id="svg_15" stroke="#000000" stroke-dasharray="null" stroke-linecap="null" stroke-linejoin="null" stroke-width="5" transform="rotate(2.27173 261.869 164.444)"/>
  <ellipse cx="442.5" cy="137.5" fill="#ffffff" id="svg_6" rx="13" ry="17" stroke="#000000" stroke-dasharray="null" stroke-linecap="null" stroke-linejoin="null" stroke-width="5"/>
  <ellipse cx="440.5" cy="142" fill="#000000" id="svg_12" rx="9" ry="10.5" stroke="#000000" stroke-dasharray="null" stroke-linecap="null" stroke-linejoin="null" stroke-width="5"/>
 </g>
</svg>