<svg width="800" height="1000" xmlns="http://www.w3.org/2000/svg" xmlns:svg="http://www.w3.org/2000/svg">
 <!-- Created with SVG-edit - https://github.com/SVG-Edit/svgedit-->
 <g class="layer">
  <title>Layer 1</title>
  <ellipse cx="370.5" cy="307.5" fill="#005fbf" id="svg_31" rx="121" ry="118" stroke="#000000" stroke-dasharray="null" stroke-linecap="null" stroke-linejoin="null" stroke-width="5"/>
  <rect fill="#ffaaaa" height="27" id="svg_33" stroke="#000000" stroke-dasharray="null" stroke-linecap="null" stroke-linejoin="null" stroke-width="5" transform="rotate(-54.2726 243 303)" width="175" x="155.5" y="289.5"/>
  <rect fill="#ffaaaa" height="28.03651" id="svg_34" stroke="#000000" stroke-dasharray="null" stroke-linecap="null" stroke-linejoin="null" stroke-width="5" transform="rotate(52.4314 494.911 301.184)" width="175" x="407.41077" y="287.16575"/>
  <rect fill="#ffaaaa" height="27" id="svg_35" stroke="#000000" stroke-dasharray="null" stroke-linecap="null" stroke-linejoin="null" stroke-width="5" transform="rotate(-83.8298 338.5 512.5)" width="175" x="251" y="499"/>
  <rect fill="#ffaaaa" height="27" id="svg_36" stroke="#000000" stroke-dasharray="null" stroke-linecap="null" stroke-linejoin="null" stroke-width="5" transform="rotate(-100.784 418.5 510.5)" width="175" x="331" y="497"/>
  <ellipse cx="172.5" cy="388.5" fill="#ffaaaa" id="svg_37" rx="28" ry="22" stroke="#000000" stroke-dasharray="null" stroke-linecap="null" stroke-linejoin="null" stroke-width="5" transform="rotate(-17.8787 172.5 388.5)"/>
  <ellipse cx="563.5" cy="384.5" fill="#ffaaaa" id="svg_38" rx="28" ry="22" stroke="#000000" stroke-dasharray="null" stroke-linecap="null" stroke-linejoin="null" stroke-width="5" transform="rotate(17.8189 563.5 384.5)"/>
  <ellipse cx="317.5" cy="618.5" fill="#ffaaaa" id="svg_39" rx="28" ry="22" stroke="#000000" stroke-dasharray="null" stroke-linecap="null" stroke-linejoin="null" stroke-width="5" transform="rotate(-17.8787 317.5 618.5)"/>
  <ellipse cx="446.5" cy="614.5" fill="#ffaaaa" id="svg_40" rx="28" ry="22" stroke="#000000" stroke-dasharray="null" stroke-linecap="null" stroke-linejoin="null" stroke-width="5" transform="rotate(11.3099 446.5 614.5)"/>
  <g id="svg_41">
   <ellipse cx="360.97502" cy="124.79393" fill="#ff5656" id="svg_2" rx="78.25244" ry="74.70607" stroke="#000000" stroke-dasharray="null" stroke-linecap="null" stroke-linejoin="null" stroke-width="5"/>
   <path d="m281.55463,106.95367l5.25576,-56.30831l21.02304,-25.64537l115.62675,0l15.18331,27.8754l1.16795,51.29074l-29.19867,-40.14058l-99.27549,0l-29.78265,42.92812z" fill="#666666" id="svg_3" stroke="#000000" stroke-dasharray="null" stroke-linecap="null" stroke-linejoin="null" stroke-width="5"/>
   <path d="m293.2341,112.52875c3.50384,-20.07029 -7.00768,-44.60064 -20.43907,-26.20288c-13.43139,18.39776 -18.10318,36.23802 -3.50384,45.71566c14.59934,9.47764 22.77497,-6.13259 22.19099,-6.6901c-0.58397,-0.55751 -1.75192,7.2476 1.75192,-12.82268z" fill="#ffaaaa" id="svg_4" stroke="#000000" stroke-dasharray="null" stroke-linecap="null" stroke-linejoin="null" stroke-width="5"/>
   <path d="m435.57763,98.0129c2.59868,-16.16085 11.70867,-20.23548 19.47552,-15.03207c7.76685,5.20341 9.67449,39.78267 2.2775,51.29074c-7.39699,11.50807 -21.16904,-3.95074 -21.02304,-4.50136c0.14599,-0.55063 -3.32865,-15.59645 -0.72997,-31.75731l-0.00001,0z" fill="#ffaaaa" id="svg_5" stroke="#000000" stroke-dasharray="null" stroke-linecap="null" stroke-linejoin="null" stroke-width="5"/>
   <ellipse cx="325.93661" cy="113.08626" fill="#ffffff" id="svg_10" rx="24.52688" ry="19.51278" stroke="#000000" stroke-dasharray="null" stroke-linecap="null" stroke-linejoin="null" stroke-width="5"/>
   <ellipse cx="388.42177" cy="111.97125" fill="#ffffff" id="svg_11" rx="25.11086" ry="19.51278" stroke="#000000" stroke-dasharray="null" stroke-linecap="null" stroke-linejoin="null" stroke-width="5"/>
   <ellipse cx="328.27251" cy="110.29872" fill="#333333" id="svg_19" rx="11.67947" ry="11.15016" stroke="#000000" stroke-dasharray="null" stroke-linecap="null" stroke-linejoin="null" stroke-width="5"/>
   <ellipse cx="390.17369" cy="108.06869" fill="#333333" id="svg_20" rx="11.67947" ry="11.15016" stroke="#000000" stroke-dasharray="null" stroke-linecap="null" stroke-linejoin="null" stroke-width="5"/>
   <path d="m376.94728,88.17644c7.64481,-0.37991 21.42879,-0.2095 26.65761,-0.95816c5.22882,-0.74866 8.92337,-0.88782 8.99082,-6.06256c0.06745,-5.17473 -28.87725,-3.14195 -39.9036,-2.08297c-11.02635,1.05899 -3.38963,9.4836 4.25517,9.10369z" fill="#000000" id="svg_23" stroke="#000000" stroke-dasharray="null" stroke-linecap="null" stroke-linejoin="null" stroke-width="5"/>
   <path d="m311.2651,86.91001c7.48921,0.22677 20.91815,1.43621 26.08312,1.13385c5.16497,-0.30236 3.09898,0.7559 9.29695,-4.98893c6.19797,-5.74483 -31.50634,-6.50072 -38.73731,-4.98893c-7.23096,1.51179 -4.13198,8.61724 3.35723,8.84401l0.00001,0z" fill="#000000" id="svg_24" stroke="#000000" stroke-dasharray="null" stroke-linecap="null" stroke-linejoin="null" stroke-width="5"/>
   <path d="m356.30323,116.98882c0,0 -12.84742,26.76038 -13.43139,26.20288c-0.58397,-0.55751 13.43139,8.36262 12.84742,7.80511" fill="none" id="svg_25" stroke="#000000" stroke-dasharray="null" stroke-linecap="null" stroke-linejoin="null" stroke-width="5"/>
   <path d="m330.6084,157.64068l58.98132,-2.18381c-4.86803,19.65086 -9.73606,23.39338 -22.96618,27.95282c-13.23012,4.55943 -35.49318,-10.19114 -36.01514,-25.769l0,-0.00001z" fill="#ffffff" id="svg_30" stroke="#000000" stroke-dasharray="null" stroke-linecap="null" stroke-linejoin="null" stroke-width="5"/>
  </g>
  <line fill="none" id="svg_18" stroke="#000000" stroke-dasharray="null" stroke-linecap="null" stroke-linejoin="null" stroke-width="5" x1="412.5" x2="436.5" y1="104.5" y2="97.5"/>
  <line fill="none" id="svg_16" stroke="#000000" stroke-dasharray="null" stroke-linecap="null" stroke-linejoin="null" stroke-width="5" x1="349.5" x2="364.5" y1="105.5" y2="105.5"/>
  <line fill="none" id="svg_17" stroke="#000000" stroke-dasharray="null" stroke-linecap="null" stroke-linejoin="null" stroke-width="5" x1="301.5" x2="293.5" y1="104.5" y2="94.5"/>
  <path d="m256.5,351.5c0,0 226,1.08151 225.5,0.54075c-0.5,-0.54075 -0.5,16.76336 -30,45.4233c-29.5,28.65994 -40.5,28.74144 -51,31.20069c-10.5,2.45925 -33.5,7.27432 -68,-3c-34.5,-10.27431 -50.75,-33.33785 -51,-33.60822c-0.25,-0.27038 -8.875,-10.40951 -14.4375,-20.48104c-5.5625,-10.07154 -11.0625,-20.07548 -11.0625,-20.07548z" fill="#007f3f" id="svg_1" stroke="#000000" stroke-dasharray="null" stroke-linecap="null" stroke-linejoin="null" stroke-width="5"/>
 </g>
</svg>