<svg width="800" height="1000" xmlns="http://www.w3.org/2000/svg" xmlns:svg="http://www.w3.org/2000/svg">
 <!-- Created with SVG-edit - http://svg-edit.googlecode.com/ -->
 <g class="layer">
  <title>Layer 1</title>
  <g id="svg_30" transform="rotate(-9.80599 526.5 442.5)">
   <path d="m507.15112,395.91843c1.07007,46.54706 9.33673,139.5798 14.08423,99.30112c1.18689,-10.06964 1.95825,-9.02277 2.77039,-4.86212c0.81219,4.16068 1.66516,11.43506 3.01532,13.8205c1.35016,2.38531 2.49988,2.3335 6.08234,-11.44958c3.5824,-13.78308 9.47961,-46.98752 11.63464,-96.92957l-40.05884,-1.18704l2.47192,1.30669z" fill="#ff5656" id="svg_31" stroke="#000000" stroke-width="5"/>
   <line fill="none" id="svg_32" stroke="#000000" stroke-dasharray="null" stroke-linecap="null" stroke-linejoin="null" stroke-width="5" x1="510.225" x2="533.978" y1="477.989" y2="478.802"/>
   <rect fill="#ff5656" height="23" id="svg_33" stroke="#ff5656" stroke-dasharray="null" stroke-linecap="null" stroke-linejoin="null" stroke-width="5" transform="matrix(0.879009 0.0324951 -0.0351603 0.812376 63.3003 82.762)" width="49" x="516.70745" y="344.77263"/>
  </g>
  <g id="svg_18" transform="rotate(14.9321 390.499 447.5)">
   <path d="m371.15112,400.91843c1.0701,46.54706 9.33673,139.5798 14.08423,99.30112c1.18689,-10.06964 1.95825,-9.02277 2.77042,-4.86212c0.81216,4.16068 1.66516,11.43506 3.01529,13.8205c1.35013,2.38531 2.49988,2.3335 6.08234,-11.44958c3.58243,-13.78308 9.47964,-46.98752 11.63464,-96.92957l-40.05884,-1.18704l2.47192,1.30669z" fill="#ff5656" id="svg_19" stroke="#000000" stroke-width="5"/>
   <line fill="none" id="svg_20" stroke="#000000" stroke-dasharray="null" stroke-linecap="null" stroke-linejoin="null" stroke-width="5" x1="374.225" x2="397.978" y1="482.989" y2="483.802"/>
   <rect fill="#ff5656" height="23" id="svg_21" stroke="#ff5656" stroke-dasharray="null" stroke-linecap="null" stroke-linejoin="null" stroke-width="5" transform="matrix(0.879009 0.0324951 -0.0351603 0.812376 63.3003 82.762)" width="49" x="362.47992" y="357.09592"/>
  </g>
  <path d="m510.11746,197.49998c33.97452,28.50732 44.84641,53.52809 56.4949,85.52193c11.6485,31.99377 19.02563,45.11945 16.30774,87.36768c-2.71777,42.24829 -41.22504,89.24823 -78.11157,100.32303c-36.88675,11.07477 -66.44833,5.11563 -83.53271,2.65457c-17.08435,-2.46109 -48.80396,-12.73859 -68.99448,-57.44797c-20.19073,-44.70929 -20.57898,-70.96057 -5.82431,-120.59201c14.75464,-49.63139 31.83905,-72.19113 54.74762,-91.05927l108.91281,-6.76794l0,-0.00002z" fill="#ff5656" id="svg_8" stroke="#000000" stroke-dasharray="null" stroke-linecap="null" stroke-linejoin="null" stroke-width="5"/>
  <g id="svg_1">
   <path d="m506.91269,78.85278c18.07913,-13.82816 62.27249,-56.84906 54.23734,-41.48446c-8.03516,15.36462 9.45306,23.1866 4.25391,51.12227c-5.19922,27.93567 -16.14337,33.48926 -26.23248,39.37585c-8.6225,4.19707 -24.57813,8.3941 -36.86716,11.74638l4.6084,-60.76003l0,-0.00002l0,0l0,-0.00002l0,0.00002l0,0.00002l0,-0.00001l-0.00001,0z" fill="#ffaaaa" id="svg_12" stroke="#000000" stroke-dasharray="null" stroke-linecap="null" stroke-linejoin="null" stroke-width="5"/>
   <path d="m389.29382,84.45467c-19.04959,-12.71022 -33.0672,-39.06715 -57.86761,-38.13063c-1.19809,11.23851 4.6955,10.39973 0.07834,41.02695c-4.61716,30.6272 8.69067,33.4986 18.03574,41.25851c9.34506,7.75989 45.02509,22.20586 45.1449,6.01706c0.11984,-16.18877 -5.5112,-33.98308 -5.39136,-50.17187l0,0l0,-0.00002l-0.00001,0z" fill="#ffaaaa" id="svg_13" stroke="#000000" stroke-dasharray="null" stroke-linecap="null" stroke-linejoin="null" stroke-width="5"/>
   <path d="m470.81567,73.44116c39.46039,10.72705 53.94275,-12.77634 53.01245,-8.31665c-5.31445,3.61594 -9.83191,9.40143 -12.75488,18.07968c-2.92294,8.67825 6.37744,27.72218 -1.59436,43.39125c-7.97177,15.66907 1.85983,23.62436 7.9718,35.4362c0.53143,5.54442 3.45447,4.58017 1.59436,16.6333c-1.86011,12.05312 -44.90778,46.04294 -64.57156,43.39124c-19.66379,-2.65167 -23.38391,-3.85699 -51.0195,-20.97241c-27.63559,-17.11545 -9.56616,-42.66808 -5.58026,-55.68546c3.9859,-13.01736 -12.75488,-24.34756 -8.76898,-46.284c3.9859,-21.93643 -28.2999,-33.86905 -7.9718,-23.142c20.32809,10.72705 50.22232,-13.25819 89.68274,-2.53117l0,0.00002l-0.00001,0z" fill="#ff5656" id="svg_3" stroke="#000000" stroke-dasharray="null" stroke-linecap="null" stroke-linejoin="null" stroke-width="5"/>
   <g id="svg_27">
    <path d="m425.03769,164.57681l53.62653,-1.8353c-4.41306,20.84714 -16.10538,31.4498 -25.18088,31.80875c-9.07639,0.35892 -22.82312,-8.56442 -28.44565,-29.97345z" fill="#ffaaaa" id="svg_15" stroke="#000000" stroke-dasharray="null" stroke-linecap="null" stroke-linejoin="null" stroke-width="5"/>
    <path d="m424.02515,170.311c-9.1597,-12.00311 20.44739,-35.51913 43.63947,-22.14032c23.19223,13.37805 12.84003,24.97079 -0.90149,29.86302c-13.74237,4.89209 -33.57813,4.27971 -42.73798,-7.7227z" fill="#ffaaaa" id="svg_11" stroke="#000000" stroke-dasharray="null" stroke-linecap="null" stroke-linejoin="null" stroke-width="5"/>
    <ellipse cx="440.733" cy="160.354" fill="#666666" id="svg_16" rx="6.10383" ry="5.17319" stroke="#000000" stroke-dasharray="null" stroke-linecap="null" stroke-linejoin="null" stroke-width="5"/>
    <ellipse cx="462.533" cy="159.956" fill="#666666" id="svg_26" rx="6.10383" ry="5.17319" stroke="#000000" stroke-dasharray="null" stroke-linecap="null" stroke-linejoin="null" stroke-width="5"/>
   </g>
   <ellipse cx="421.789" cy="121.172" fill="#000000" id="svg_28" rx="6.77603" ry="6.50869" stroke="#000000" stroke-dasharray="null" stroke-linecap="null" stroke-linejoin="null" stroke-width="5"/>
   <ellipse cx="475.599" cy="120.448" fill="#000000" id="svg_29" rx="6.77603" ry="6.50869" stroke="#000000" stroke-dasharray="null" stroke-linecap="null" stroke-linejoin="null" stroke-width="5"/>
   <path d="m405.44693,108.87735c9.58786,-10.12462 21.94144,-7.23187 27.1041,0" fill="none" id="svg_55" stroke="#000000" stroke-dasharray="null" stroke-linecap="null" stroke-linejoin="null" stroke-width="5"/>
   <path d="m465.23541,108.53807c9.58786,-10.12462 21.94144,-7.23187 27.10413,0" fill="none" id="svg_56" stroke="#000000" stroke-dasharray="null" stroke-linecap="null" stroke-linejoin="null" stroke-width="5"/>
  </g>
  <g id="svg_17">
   <path d="m418.76877,433.57379c1.11887,37.29138 9.7623,111.82495 14.72617,79.55548c1.241,-8.06726 2.04752,-7.22858 2.8967,-3.89526c0.84918,3.33337 1.74106,9.16125 3.15271,11.07239c1.41168,1.91101 2.61383,1.86945 6.35956,-9.17291c3.74573,-11.04242 9.91171,-37.64426 12.16495,-77.65555l-41.88467,-0.95102l2.58458,1.04687z" fill="#ff5656" id="svg_2" stroke="#000000" stroke-width="5"/>
   <line fill="none" id="svg_5" stroke="#000000" stroke-dasharray="null" stroke-linecap="null" stroke-linejoin="null" stroke-width="5" x1="421.983" x2="446.819" y1="499.325" y2="499.976"/>
   <rect fill="#ff5656" height="23" id="svg_9" stroke="#ff5656" stroke-dasharray="null" stroke-linecap="null" stroke-linejoin="null" stroke-width="5" transform="matrix(0.919073 0.0260336 -0.0367629 0.650839 45.3588 164.586)" width="49" x="419.321" y="376.48"/>
  </g>
  <g id="svg_22">
   <path d="m460.21017,437.42203c1.09448,36.55093 9.5495,109.60452 14.40518,77.97586c1.21396,-7.90717 2.0029,-7.08514 2.83356,-3.81799c0.83069,3.26715 1.70313,8.97937 3.08401,10.85248c1.38089,1.87311 2.55685,1.8324 6.22095,-8.99072c3.66406,-10.82312 9.69568,-36.89676 11.89978,-76.11359l-40.97174,-0.93213l2.52826,1.02609z" fill="#ff5656" id="svg_23" stroke="#000000" stroke-width="5"/>
   <line fill="none" id="svg_24" stroke="#000000" stroke-dasharray="null" stroke-linecap="null" stroke-linejoin="null" stroke-width="5" x1="463.354" x2="487.648" y1="501.868" y2="502.506"/>
   <rect fill="#ff5656" height="23" id="svg_25" stroke="#ff5656" stroke-dasharray="null" stroke-linecap="null" stroke-linejoin="null" stroke-width="5" transform="matrix(0.899041 0.0255167 -0.0359616 0.637916 54.4521 171.584)" width="49" x="464.419" y="378.11"/>
  </g>
 </g>
</svg>