<svg width="800" height="1000" xmlns="http://www.w3.org/2000/svg" xmlns:svg="http://www.w3.org/2000/svg">
 <!-- Created with SVG-edit - http://svg-edit.googlecode.com/ -->
 <g class="layer">
  <title>Layer 1</title>
  <g id="svg_51">
   <path d="m420.5,383.5c-1,-12 -23,22 -28.5,36.5c-5.5,14.5 1.5,33.5 21,35c19.5,1.5 -5.5,-22.5 4,-30c9.5,-7.5 44.5,-30.5 44,-23" fill="#ff5656" id="svg_43" stroke="#000000" stroke-dasharray="null" stroke-linecap="null" stroke-linejoin="null" stroke-width="5" transform="rotate(-0.0900779 425.595 418.025)"/>
   <line fill="none" id="svg_47" stroke="#000000" stroke-dasharray="null" stroke-linecap="null" stroke-linejoin="null" stroke-width="5" x1="398.5" x2="415.5" y1="448.5" y2="438.5"/>
  </g>
  <g id="svg_52">
   <path d="m567.5,380.5c0,0 32,21 29.5,41.5c-2.5,20.5 -28.5,43.5 -37,36c-8.5,-7.5 -7.5,-21.5 -2,-30c5.5,-8.5 -13.33333,-22 -20,-33" fill="#ff5656" id="svg_42" stroke="#000000" stroke-dasharray="null" stroke-linecap="null" stroke-linejoin="null" stroke-width="5" transform="rotate(-0.0618589 567.57 419.976)"/>
   <line fill="none" id="svg_48" stroke="#000000" stroke-dasharray="null" stroke-linecap="null" stroke-linejoin="null" stroke-width="5" x1="554.5" x2="579.5" y1="440.5" y2="448.5"/>
  </g>
  <path d="m442.5,208.00002l-71.5,12.62382c-21.66667,15.27326 -29.33333,53.92397 -33,88.83428c-3.66667,34.91031 23,50.18358 38,67.32704c15,17.14346 -1,12.77967 43,28.98803c44,16.20836 124,13.71477 169,-0.9351c45,-14.64987 57,-21.81894 64,-32.72842c7,-10.90948 17.66667,-34.28692 19,-73.87272c1.33333,-39.5858 -24.33333,-62.65155 -53,-76.67801c-28.66667,-14.02647 -68.33333,-22.13065 -107,-20.57215c-38.66667,1.5585 -42,0 -68.5,7.01323z" fill="#ff5656" id="svg_7" stroke="#000000" stroke-dasharray="null" stroke-linecap="null" stroke-linejoin="null" stroke-width="5"/>
  <g id="svg_1">
   <path d="m464.66929,90.61486c17.84914,-13.75465 61.48032,-56.54684 53.54739,-41.26392c-7.93294,15.28294 9.33281,23.06333 4.1998,50.85049c-5.13308,27.78716 -15.93801,33.31122 -25.89878,39.16652c-8.51281,4.17476 -24.26547,8.34947 -36.39817,11.68393l4.54978,-60.43701l0,-0.00002l0,0l0,-0.00002l0,0.00002l0,0.00002l0,-0.00001l-0.00001,0z" fill="#ffaaaa" id="svg_12" stroke="#000000" stroke-dasharray="null" stroke-linecap="null" stroke-linejoin="null" stroke-width="5"/>
   <path d="m348.54666,96.18697c-18.80726,-12.64265 -32.64655,-38.85946 -57.13147,-37.92792c-1.18285,11.17876 4.63577,10.34444 0.07734,40.80884c-4.55842,30.46438 8.58012,33.32051 17.80631,41.03917c9.22618,7.71864 44.45232,22.08781 44.57061,5.98507c0.11832,-16.10271 -5.44109,-33.80242 -5.32278,-49.90514l0,0l0,-0.00002l-0.00001,0z" fill="#ffaaaa" id="svg_13" stroke="#000000" stroke-dasharray="null" stroke-linecap="null" stroke-linejoin="null" stroke-width="5"/>
   <path d="m429.03146,85.23201c38.95841,10.67002 53.25654,-12.70842 52.33808,-8.27244c-5.24684,3.59672 -9.70684,9.35145 -12.59262,17.98356c-2.88576,8.63211 6.29631,27.5748 -1.57408,43.16057c-7.87036,15.58577 1.83617,23.49877 7.87039,35.24781c0.52467,5.51494 3.41053,4.55582 1.57408,16.54487c-1.83645,11.98904 -44.33651,45.79816 -63.75014,43.16056c-19.41365,-2.63757 -23.08644,-3.83649 -50.37048,-20.86092c-27.28404,-17.02446 -9.44447,-42.44125 -5.50927,-55.38942c3.9352,-12.94816 -12.59262,-24.21812 -8.65743,-46.03794c3.9352,-21.81981 -27.9399,-33.68899 -7.87039,-23.01897c20.0695,10.67002 49.58344,-13.18771 88.54188,-2.51771l0,0.00002l-0.00001,0z" fill="#ff5656" id="svg_3" stroke="#000000" stroke-dasharray="null" stroke-linecap="null" stroke-linejoin="null" stroke-width="5"/>
   <g id="svg_27">
    <path d="m383.83583,175.88316l52.94435,-1.82554c-4.35692,20.73631 -15.9005,31.28261 -24.86055,31.63965c-8.96093,0.35701 -22.53279,-8.51889 -28.08379,-29.8141z" fill="#ffaaaa" id="svg_15" stroke="#000000" stroke-dasharray="null" stroke-linecap="null" stroke-linejoin="null" stroke-width="5"/>
    <path d="m382.83617,181.58687c-9.04318,-11.9393 20.18728,-35.3303 43.08433,-22.02262c22.8972,13.30693 12.67669,24.83804 -0.89002,29.70426c-13.56755,4.86608 -33.15098,4.25696 -42.19431,-7.68164z" fill="#ffaaaa" id="svg_11" stroke="#000000" stroke-dasharray="null" stroke-linecap="null" stroke-linejoin="null" stroke-width="5"/>
    <ellipse cx="399.33148" cy="171.6828" fill="#666666" id="svg_16" rx="6.02618" ry="5.14569" stroke="#000000" stroke-dasharray="null" stroke-linecap="null" stroke-linejoin="null" stroke-width="5"/>
    <ellipse cx="420.85416" cy="171.28692" fill="#666666" id="svg_26" rx="6.02618" ry="5.14569" stroke="#000000" stroke-dasharray="null" stroke-linecap="null" stroke-linejoin="null" stroke-width="5"/>
   </g>
   <ellipse cx="380.62846" cy="132.7091" fill="#000000" id="svg_28" rx="6.68983" ry="6.47409" stroke="#000000" stroke-dasharray="null" stroke-linecap="null" stroke-linejoin="null" stroke-width="5"/>
   <ellipse cx="433.75394" cy="131.98895" fill="#000000" id="svg_29" rx="6.68983" ry="6.47409" stroke="#000000" stroke-dasharray="null" stroke-linecap="null" stroke-linejoin="null" stroke-width="5"/>
   <path d="m364.49428,120.47982c9.46589,-10.0708 21.66232,-7.19342 26.75931,0" fill="none" id="svg_55" stroke="#000000" stroke-dasharray="null" stroke-linecap="null" stroke-linejoin="null" stroke-width="5"/>
   <path d="m423.52219,120.14234c9.46589,-10.0708 21.66232,-7.19342 26.75934,0" fill="none" id="svg_56" stroke="#000000" stroke-dasharray="null" stroke-linecap="null" stroke-linejoin="null" stroke-width="5"/>
  </g>
  <g id="svg_50">
   <path d="m383.5,342.5c-13,25 -47,45 -36.5,60.5c10.5,15.5 1.5,30.5 5,39c3.5,8.5 31.5,-7.5 30,-26c-1.5,-18.5 37.5,-40.5 36,-47" fill="#ff5656" id="svg_37" stroke="#000000" stroke-dasharray="null" stroke-linecap="null" stroke-linejoin="null" stroke-width="5" transform="rotate(2.36493 381.53 393.421)"/>
   <line fill="none" id="svg_45" stroke="#000000" stroke-dasharray="null" stroke-linecap="null" stroke-linejoin="null" stroke-width="5" x1="353.5" x2="373.5" y1="420.5" y2="431.5"/>
  </g>
  <g id="svg_53">
   <path d="m638.5,317.5c35,4 0,64 12.5,84.5c12.5,20.5 -41.5,65.5 -51,60c-9.5,-5.5 9.5,-29.5 10,-51c0.5,-21.5 -40.5,-33.5 -41,-34" fill="#ff5656" id="svg_38" stroke="#000000" stroke-dasharray="null" stroke-linecap="null" stroke-linejoin="null" stroke-width="5" transform="rotate(0.434528 611.783 389.981)"/>
   <line fill="none" id="svg_49" stroke="#000000" stroke-dasharray="null" stroke-linecap="null" stroke-linejoin="null" stroke-width="5" x1="604.5" x2="621.5" y1="440.5" y2="450.5"/>
  </g>
  <g id="svg_63">
   <path d="m665.5,267.61005c14.87438,5.09646 29.74877,2.54824 37.92968,-13.37823" fill="none" id="svg_54" stroke="#000000" stroke-dasharray="null" stroke-linecap="null" stroke-linejoin="null" stroke-width="5"/>
   <ellipse cx="705.95611" cy="235.72718" fill="none" id="svg_57" rx="18.42293" ry="13.11437" stroke="#000000" stroke-dasharray="null" stroke-linecap="null" stroke-linejoin="null" stroke-width="5" transform="matrix(0.591375 -0.650231 0.549134 0.700248 152.719 534.301)"/>
   <path d="m704.0615,251.66157c15.90736,4.02269 28.78787,-4.84695 30.12109,-34.22072" fill="none" id="svg_58" stroke="#000000" stroke-dasharray="null" stroke-linecap="null" stroke-linejoin="null" stroke-width="5"/>
   <ellipse cx="734.61127" cy="207.07667" fill="none" id="svg_59" rx="14" ry="10.57914" stroke="#000000" stroke-dasharray="null" stroke-linecap="null" stroke-linejoin="null" stroke-width="5" transform="matrix(0.536159 -0.714207 0.603164 0.634866 203.97 606.598)"/>
   <path d="m732.48221,217.9195c27.97651,0.95559 22.86541,-39.17909 12.91223,-33.44557" fill="none" id="svg_61" stroke="#000000" stroke-dasharray="null" stroke-linecap="null" stroke-linejoin="null" stroke-width="5"/>
  </g>
 </g>
</svg>