<svg width="640" height="480" xmlns="http://www.w3.org/2000/svg" xmlns:svg="http://www.w3.org/2000/svg">
 <!-- Created with SVG-edit - https://github.com/SVG-Edit/svgedit-->
 <g class="layer">
  <title>Layer 1</title>
  <path d="m222.5,308.5c11.16667,-2.83333 25.33333,-7.66667 60.5,-7.5c35.16667,0.16667 43.33333,4.66667 69,1c25.66667,-3.66667 44.33333,-11.66667 49,-28c4.66667,-16.33333 -7,-22.33333 -19,-54l-7,-19.5c5,-21.5 36,-33.83333 45,-41.5c9,-7.66667 9,-20.33333 -10,-21c-19,-0.66667 -29.33333,21 -41,29c-9,10.33333 -20,15.66667 -19,36c1,20.33333 27.66667,52 23,64c-4.66667,12 -18.33333,7 -29,12c-19,1.33333 -40,-1.33333 -59,-1c-19,0.33333 -49.33333,-1.33333 -82,13c-32.66667,14.33333 -21.83333,26.5 -13.75,25.75c8.08333,-0.75 22.08333,-5.41667 33.25,-8.25z" fill="#00bf00" id="svg_1" stroke="#000000" stroke-dasharray="null" stroke-linecap="null" stroke-linejoin="null" stroke-width="5"/>
  <line fill="none" id="svg_3" stroke="#000000" stroke-dasharray="null" stroke-linecap="null" stroke-linejoin="null" stroke-width="5" x1="422.5" x2="440.5" y1="145" y2="126"/>
  <ellipse cx="445.08518" cy="122.78088" fill="none" id="svg_5" rx="5.6491" ry="8" stroke="#000000" stroke-dasharray="null" stroke-linecap="null" stroke-linejoin="null" stroke-width="5" transform="rotate(34.8845 445.085 122.781)"/>
  <ellipse cx="377.31815" cy="151.93692" fill="none" id="svg_4" rx="5" ry="8" stroke="#000000" stroke-dasharray="null" stroke-linecap="null" stroke-linejoin="null" stroke-width="5" transform="matrix(1.09571 0.46422 -0.571677 0.889756 103.846 -192.507)"/>
  <line fill="none" id="svg_2" stroke="#000000" stroke-dasharray="null" stroke-linecap="null" stroke-linejoin="null" stroke-width="5" x1="405.5" x2="426.36366" y1="146.5" y2="126.14052"/>
  <ellipse cx="441" cy="128.5" fill="#000000" id="svg_8" rx="3.5" ry="3" stroke="#000000" stroke-dasharray="null" stroke-linecap="null" stroke-linejoin="null" stroke-width="5"/>
  <ellipse cx="429.5" cy="121.5" fill="#000000" id="svg_10" rx="3.5" ry="3" stroke="#000000" stroke-dasharray="null" stroke-linecap="null" stroke-linejoin="null" stroke-width="5"/>
 </g>
</svg>