<svg width="640" height="480" xmlns="http://www.w3.org/2000/svg" xmlns:svg="http://www.w3.org/2000/svg">
 <!-- Created with SVG-edit - https://github.com/SVG-Edit/svgedit-->
 <g class="layer">
  <title>Layer 1</title>
  <path d="m151.5,290.5c16.16667,-11.83333 -2.5,24.16667 23.5,7.5c26,-16.66667 9,15.66667 25,17c16,1.33333 14.66667,-13 23,-11c8.33333,2 10.66667,28 25,10c14.33333,-18 13.66667,13.33333 23,9c9.33333,-4.33333 16.66667,-3 43,-4c26.33333,-1 27.66667,-3 57,-1c14.33333,2 40.66667,13.66667 44,2c3.33333,-11.66667 -27.33333,-18.33333 -40,-29c-31.66667,-11 -61.33333,-25 -93,-36c-20.33333,-9 -67.66667,-19 -67,-36c0.66667,-17 16.33333,-20 23,-27c6.66667,-7 2.33333,-19 -7,-24l17,-54l-9,3l-15,48l-14,-3l8,-49l-11,-5c4,-5 0.5,54.5 -14.5,55.5c-15,1 -10,12 -10.5,11.5c-0.5,-0.5 21.5,38.5 2,44c-19.5,5.5 -54.5,0.5 -50,13c4.5,12.5 15.5,20.5 16,26c0.5,5.5 -3.5,12.5 -14,22c-10.5,9.5 -0.66667,22.33333 15.5,10.5z" fill="#ffaaaa" id="svg_2" stroke="#000000" stroke-dasharray="null" stroke-linecap="null" stroke-linejoin="null" stroke-width="5"/>
  <path d="m199.1428,173.5c5.93408,1.5 4.92095,16 19.53907,6.5c14.61811,-9.5 -10.7103,26.66667 -14.76285,24c-4.05255,-2.66667 -10.7103,-32 -4.77622,-30.5z" fill="#ff5656" id="svg_4" stroke="#000000" stroke-dasharray="null" stroke-linecap="null" stroke-linejoin="null" stroke-width="5"/>
  <ellipse cx="250.29796" cy="102.60954" fill="#ffffff" id="svg_5" rx="15.81746" ry="18" stroke="#000000" stroke-dasharray="null" stroke-linecap="null" stroke-linejoin="null" stroke-width="5" transform="rotate(20.1858 250.298 102.61)"/>
  <ellipse cx="250" cy="101" fill="#333333" id="svg_6" rx="7.5" ry="11.5" stroke="#000000" stroke-dasharray="null" stroke-linecap="null" stroke-linejoin="null" stroke-width="5"/>
  <ellipse cx="213.5" cy="94.5" fill="#ffffff" id="svg_8" rx="15.5" ry="18" stroke="#000000" stroke-dasharray="null" stroke-linecap="null" stroke-linejoin="null" stroke-width="5"/>
  <ellipse cx="215" cy="93" fill="#333333" id="svg_9" rx="7.5" ry="10" stroke="#000000" stroke-dasharray="null" stroke-linecap="null" stroke-linejoin="null" stroke-width="5"/>
  <path d="m187.5,64.5c-4.66667,8.33333 2.66667,19.66667 10,22" fill="none" id="svg_10" stroke="#000000" stroke-dasharray="null" stroke-linecap="null" stroke-linejoin="null" stroke-width="5" transform="rotate(-30.5094 191.767 75.5)"/>
  <path d="m291.21655,89.11086c-2.3171,12.57143 -6.9513,15.71428 -20.85391,18" fill="none" id="svg_11" stroke="#000000" stroke-dasharray="null" stroke-linecap="null" stroke-linejoin="null" stroke-width="5" transform="rotate(25.3462 280.79 98.1108)"/>
  <path d="m280.5,73.5c-1.88889,12.57143 -5.66667,15.71428 -17,18" fill="none" id="svg_12" stroke="#000000" stroke-dasharray="null" stroke-linecap="null" stroke-linejoin="null" stroke-width="5"/>
  <path d="m286.5,80.5c-2,12.57143 -6,15.71428 -18,18" fill="none" id="svg_13" stroke="#000000" stroke-dasharray="null" stroke-linecap="null" stroke-linejoin="null" stroke-width="5" transform="rotate(14.0362 277.5 89.5)"/>
  <path d="m192.52682,58.61463c-6.2972,7.90139 3.5984,18.6473 13.49398,20.85969" fill="none" id="svg_14" stroke="#000000" stroke-dasharray="null" stroke-linecap="null" stroke-linejoin="null" stroke-width="5" transform="rotate(-0.397928 198.285 69.0445)"/>
  <path d="m203.23273,52.5c-4.66667,8.33333 2.66667,19.66667 10,22" fill="none" id="svg_15" stroke="#000000" stroke-dasharray="null" stroke-linecap="null" stroke-linejoin="null" stroke-width="5"/>
  <rect fill="none" height="0" id="svg_22" stroke="#000000" stroke-dasharray="null" stroke-linecap="null" stroke-linejoin="null" stroke-width="5" width="1" x="374.5" y="155.5"/>
  <g id="svg_21">
   <path d="m227.5,236.5c7.16667,-1.5 -0.16667,-21.83333 18.5,-9.5c18.66667,12.33333 27,58.33333 21,48c-6,-10.33333 -20.66667,31 -2,45c18.66667,14 69.66667,18.66667 98,6c28.33333,-12.66667 50,-24 55,-60c5,-36 6.66667,-73.33333 -30,-98c-36.66667,-24.66667 -64.33333,-23.66667 -95,-11c-30.66667,12.66667 -30.33333,30.33333 -44,48c-17.16667,-7.5 -26.33333,17 -21.5,31.5z" fill="#7f3f00" id="svg_3" stroke="#000000" stroke-dasharray="null" stroke-linecap="null" stroke-linejoin="null" stroke-width="5"/>
   <path d="m248.5,204.5c17.33334,5.47826 24.60215,41.08696 26,63" fill="#7f3f00" id="svg_16" stroke="#000000" stroke-dasharray="null" stroke-linecap="null" stroke-linejoin="null" stroke-width="5"/>
   <path d="m273.85014,293.74732c12.51362,-67.79968 67.16496,-26.60083 39.83929,-4.86601" fill="#7f3f00" id="svg_17" stroke="#000000" stroke-dasharray="null" stroke-linecap="null" stroke-linejoin="null" stroke-width="5" transform="rotate(39.8353 297.547 275.108)"/>
   <path d="m303.5,294.5c-16,2.66667 -17,-19.66667 -3,-27" fill="#7f3f00" id="svg_18" stroke="#000000" stroke-dasharray="null" stroke-linecap="null" stroke-linejoin="null" stroke-width="5" transform="rotate(8.74316 297.1 281.11)"/>
   <ellipse cx="300.5" cy="278.5" fill="#7f3f00" id="svg_19" rx="7" ry="9" stroke="#000000" stroke-dasharray="null" stroke-linecap="null" stroke-linejoin="null" stroke-width="5"/>
  </g>
  <path d="m161.5,272.5c9,23.33333 41,-11.33333 40,20" fill="none" id="svg_26" stroke="#000000" stroke-dasharray="null" stroke-linecap="null" stroke-linejoin="null" stroke-width="5"/>
 </g>
</svg>