<svg width="640" height="480" xmlns="http://www.w3.org/2000/svg" xmlns:svg="http://www.w3.org/2000/svg">
 <!-- Created with SVG-edit - http://svg-edit.googlecode.com/ -->
 <g>
  <title>Layer 1</title>
  <ellipse stroke="#000000" ry="92" rx="61" id="svg_18" cy="259" cx="335" stroke-linecap="null" stroke-linejoin="null" stroke-dasharray="null" stroke-width="3" fill="#5f00bf"/>
  <ellipse ry="45" rx="48" id="svg_1" cy="132" cx="334" stroke-width="5" stroke="#000000" fill="#ffaaaa"/>
  <ellipse stroke="#000000" ry="13.5" rx="16" id="svg_4" cy="120.5" cx="316" stroke-linecap="null" stroke-linejoin="null" stroke-dasharray="null" stroke-width="5" fill="#ffffff"/>
  <ellipse stroke="#000000" id="svg_5" ry="13.5" rx="15" cy="120" cx="355" stroke-linecap="null" stroke-linejoin="null" stroke-dasharray="null" stroke-width="5" fill="#ffffff"/>
  <line stroke="#000000" id="svg_6" y2="112" x2="343" y1="112" x1="328" stroke-linecap="null" stroke-linejoin="null" stroke-dasharray="null" stroke-width="5" fill="none"/>
  <line id="svg_8" y2="112" x2="296" y1="113" x1="299" stroke-linecap="null" stroke-linejoin="null" stroke-dasharray="null" stroke-width="5" stroke="#000000" fill="none"/>
  <line id="svg_9" y2="108" x2="374" y1="114" x1="369" stroke-linecap="null" stroke-linejoin="null" stroke-dasharray="null" stroke-width="5" stroke="#000000" fill="none"/>
  <path id="svg_10" d="m333,128c0,0 -7,15 -7,15c0,0 6,7 6,7" stroke-linecap="null" stroke-linejoin="null" stroke-dasharray="null" stroke-width="5" stroke="#000000" fill="#ffaaaa"/>
  <path stroke="#000000" id="svg_12" d="m322,154.13479c0,0 19,-1.13479 19,-1.13479c0,0 0,14.56098 -9,16.88704c-9,2.32606 -10,-15.75225 -10,-15.75225z" stroke-linecap="null" stroke-linejoin="null" stroke-dasharray="null" stroke-width="3" fill="#ffffff"/>
  <ellipse ry="7" rx="7" id="svg_13" cy="119" cx="311" stroke-linecap="null" stroke-linejoin="null" stroke-dasharray="null" stroke-width="3" stroke="#000000" fill="#191919"/>
  <ellipse id="svg_14" ry="7" rx="7" cy="119" cx="351" stroke-linecap="null" stroke-linejoin="null" stroke-dasharray="null" stroke-width="3" stroke="#000000" fill="#191919"/>
  <path stroke="#000000" id="svg_15" d="m340,105c6.66667,-8 20.33333,-7 26,0" stroke-linecap="null" stroke-linejoin="null" stroke-dasharray="null" stroke-width="3" fill="none"/>
  <path id="svg_17" stroke="#000000" d="m305,103.81561c6.66667,-8 20.33333,-7 26,0" stroke-linecap="null" stroke-linejoin="null" stroke-dasharray="null" stroke-width="3" fill="none"/>
  <rect stroke="#000000" id="svg_20" height="98" width="18" y="345" x="313" stroke-linecap="null" stroke-linejoin="null" stroke-dasharray="null" stroke-width="3" fill="#aaffff"/>
  <rect stroke="#000000" id="svg_21" height="98" width="18" y="348" x="342" stroke-linecap="null" stroke-linejoin="null" stroke-dasharray="null" stroke-width="3" fill="#aaffff"/>
  <rect transform="rotate(-25.38212013244629 397.49999999999994,243.49999999999994) " stroke="#000000" id="svg_22" height="115" width="17" y="186" x="389" stroke-linecap="null" stroke-linejoin="null" stroke-dasharray="null" stroke-width="3" fill="#5f00bf"/>
  <rect stroke="#000000" transform="rotate(29.659109115600586 263.99999999999983,243) " id="svg_23" height="115" width="17" y="185.5" x="255.5" stroke-linecap="null" stroke-linejoin="null" stroke-dasharray="null" stroke-width="3" fill="#5f00bf"/>
  <path id="svg_3" d="m274,215c-7,-23 -6,-63 -1,-102c5,-39 36,-46 46,-49c10,-3 -2,-2 29,0c31,2 39,28 44,46c5,18 8,88 -1,108c-9,20 -15,-70 -15,-71c0,-1 2,-35 -5,-44c-7,-9 -17,-16 -37,-17c-20,-1 -38,16 -39,23c-1,7 -6,41 -6,41c0,0 1.25,0.25 -2.5,32.5c-3.75,32.25 -5.5,55.5 -12.5,32.5z" stroke-linecap="null" stroke-linejoin="null" stroke-dasharray="null" stroke-width="5" stroke="#000000" fill="#333333"/>
  <ellipse stroke="#000000" ry="14" rx="20.5" id="svg_24" cy="445" cx="315.5" stroke-linecap="null" stroke-linejoin="null" stroke-dasharray="null" stroke-width="3" fill="#d4ffaa"/>
  <ellipse id="svg_26" stroke="#000000" ry="14" rx="20.5" cy="446" cx="351" stroke-linecap="null" stroke-linejoin="null" stroke-dasharray="null" stroke-width="3" fill="#d4ffaa"/>
  <ellipse transform="rotate(-13.324531555175781 225.9999999999997,302.99999999999994) " id="svg_27" stroke="#000000" ry="14" rx="20.5" cy="303" cx="226" stroke-linecap="null" stroke-linejoin="null" stroke-dasharray="null" stroke-width="3" fill="#5f00bf"/>
  <ellipse transform="rotate(-12.875001907348633 427.99999999999943,304.99999999999994) " id="svg_28" stroke="#000000" ry="14" rx="20.5" cy="305" cx="428" stroke-linecap="null" stroke-linejoin="null" stroke-dasharray="null" stroke-width="3" fill="#5f00bf"/>
  <path stroke="#000000" id="svg_29" d="m277.78042,283.90692c0,0 117.87773,-6.74878 119.51492,1.92823c1.63719,8.677 14.64174,51.16971 2.45578,61.70317c-12.18595,10.53345 -41.74836,14.46168 -58.93886,14.46168c-17.19051,0 -56.48308,-0.96411 -68.76201,-17.35402c-12.27893,-16.3899 5.73017,-60.73906 5.73017,-60.73906z" stroke-linecap="null" stroke-linejoin="null" stroke-dasharray="null" stroke-width="3" fill="#aaffff"/>
 </g>
</svg>